<?xml version="1.0" standalone="no"?>
<!DOCTYPE svg PUBLIC "-//W3C//DTD SVG 20010904//EN"
 "http://www.w3.org/TR/2001/REC-SVG-20010904/DTD/svg10.dtd">
<svg version="1.0" xmlns="http://www.w3.org/2000/svg"
 width="385.000000pt" height="180.000000pt" viewBox="0 0 385.000000 180.000000"
 preserveAspectRatio="xMidYMid meet">

<g transform="translate(0.000000,180.000000) scale(0.100000,-0.100000)"
fill="#000000" stroke="none">
<path d="M0 900 l0 -900 1925 0 1925 0 0 900 0 900 -1925 0 -1925 0 0 -900z
m2150 392 c0 -236 1 -233 -78 -250 -49 -11 -117 1 -144 25 -15 14 -18 34 -18
134 0 109 2 120 22 138 25 24 68 34 129 29 l44 -3 3 55 c3 52 15 80 33 80 5 0
9 -94 9 -208z m-382 45 c20 -19 22 -29 22 -134 0 -130 -3 -137 -75 -159 -37
-11 -53 -11 -95 0 -73 19 -79 32 -80 161 0 107 1 111 26 130 61 47 151 47 202
2z m-849 7 c17 -8 40 -27 51 -41 19 -24 20 -40 20 -225 0 -225 -2 -233 -74
-271 -62 -32 -175 -30 -236 3 -46 26 -79 74 -80 117 0 30 10 34 48 18 21 -10
32 -21 32 -35 0 -70 205 -82 231 -13 10 27 12 315 3 351 -9 32 -54 52 -119 52
-41 0 -65 -6 -85 -20 -26 -18 -29 -28 -32 -81 l-3 -59 -38 32 c-44 39 -48 69
-14 118 24 37 70 66 114 73 47 8 149 -2 182 -19z m480 -3 c22 -16 31 -30 29
-44 -5 -34 -32 -32 -45 3 -13 35 -54 54 -100 45 -56 -10 -63 -25 -63 -139 0
-131 5 -138 90 -134 58 3 65 5 70 27 3 13 15 30 28 39 21 14 22 13 22 -14 -1
-43 -23 -65 -80 -80 -66 -17 -141 2 -158 41 -15 33 -16 209 -1 236 27 52 147
63 208 20z m1087 13 c19 -9 34 -19 34 -23 0 -3 3 -15 6 -27 7 -25 3 -29 -105
-113 -68 -53 -81 -68 -81 -92 0 -29 0 -29 63 -29 65 0 87 11 87 41 0 16 28 34
38 24 13 -13 -16 -71 -42 -83 -40 -20 -121 -17 -159 5 l-32 19 -3 126 c-2 122
-2 126 21 141 46 30 122 35 173 11z m-1880 -215 c25 -12 52 -32 60 -44 14 -22
22 -90 12 -100 -13 -13 -60 17 -69 45 -15 42 -90 65 -158 48 -25 -6 -52 -15
-58 -21 -20 -15 -18 -380 2 -397 23 -19 86 -30 132 -24 61 9 83 34 83 94 0 57
13 64 53 26 22 -21 25 -30 20 -63 -12 -72 -42 -99 -140 -124 -44 -11 -62 -11
-105 1 -132 33 -138 46 -138 294 l0 193 33 35 c41 43 76 56 160 57 50 1 79 -5
113 -20z m2854 -145 l0 -64 35 0 c39 0 39 1 25 -34 -7 -19 -17 -26 -35 -26
l-25 0 0 -134 c0 -133 0 -134 -26 -151 -15 -9 -30 -13 -35 -8 -5 5 -10 71 -11
148 l-3 140 -33 5 c-18 3 -33 8 -32 13 0 4 0 13 0 21 0 8 16 20 35 26 33 11
35 14 35 58 0 54 7 68 35 74 32 7 35 1 35 -68z m-2070 -82 c25 -12 37 -27 44
-51 9 -30 7 -36 -14 -53 -31 -25 -44 -19 -50 23 -4 30 -10 35 -43 44 -30 7
-45 5 -65 -6 -26 -14 -27 -19 -30 -104 -4 -122 4 -137 77 -133 52 3 56 5 59
29 3 24 35 49 64 49 15 0 4 -85 -13 -102 -56 -54 -184 -50 -231 6 -15 17 -18
42 -18 143 l0 122 28 19 c59 43 122 47 192 14z m333 14 c74 -27 77 -34 77
-176 0 -109 -3 -129 -17 -142 -47 -38 -112 -48 -183 -26 -57 18 -70 51 -70
176 0 93 2 103 25 130 22 27 73 49 115 51 8 0 32 -6 53 -13z m352 3 c22 -6 50
-20 63 -32 21 -19 22 -28 22 -154 0 -74 5 -143 10 -154 12 -22 59 -26 78 -7 8
8 12 56 12 150 0 133 1 140 24 163 53 53 166 52 221 -2 24 -25 25 -30 25 -159
0 -126 -1 -134 -22 -148 -12 -9 -26 -16 -30 -16 -5 0 -8 60 -8 133 0 158 -6
172 -73 172 -74 0 -77 -7 -77 -170 0 -158 -1 -162 -72 -185 -30 -9 -46 -9 -75
0 -72 23 -73 26 -73 190 l0 147 -25 11 c-14 7 -35 12 -45 12 -10 0 -31 -5 -45
-12 -25 -11 -25 -12 -25 -141 0 -112 -2 -132 -17 -143 -40 -30 -43 -21 -43
144 0 176 -2 171 80 199 45 15 48 15 95 2z m720 0 c103 -29 126 -90 55 -144
-22 -16 -52 -40 -67 -53 -16 -12 -43 -32 -61 -45 -48 -33 -38 -51 29 -55 55
-3 55 -3 75 35 12 23 28 39 42 41 19 3 22 -1 22 -35 -1 -65 -51 -103 -135
-103 -24 0 -57 6 -72 12 -56 25 -58 32 -58 168 0 145 3 153 74 174 58 18 49
18 96 5z m410 -18 c56 -32 66 -88 19 -110 -27 -12 -27 -11 -38 41 -5 21 -14
29 -40 34 -37 6 -77 -2 -88 -20 -13 -19 -9 -201 4 -214 7 -7 34 -12 61 -12 45
0 49 2 62 34 14 33 31 46 61 46 18 0 18 -31 0 -75 -31 -73 -165 -88 -238 -27
-16 13 -18 34 -18 146 0 125 1 132 23 146 62 41 133 45 192 11z"/>
<path d="M1978 1334 c-28 -15 -28 -15 -28 -127 0 -62 4 -118 9 -125 12 -19
130 -19 142 0 5 7 9 64 9 125 l0 112 -30 16 c-36 19 -67 19 -102 -1z"/>
<path d="M1617 1334 l-28 -15 3 -122 3 -122 70 0 70 0 3 126 3 127 -32 11
c-41 14 -58 13 -92 -5z"/>
<path d="M2369 1339 c-37 -14 -51 -46 -47 -109 3 -57 21 -75 50 -51 7 6 37 30
66 53 63 51 68 77 17 101 -40 19 -49 20 -86 6z"/>
<path d="M1623 870 c-22 -9 -23 -15 -23 -113 0 -67 4 -107 12 -115 7 -7 33
-12 58 -12 25 0 51 5 58 12 8 8 12 47 12 109 0 90 -2 99 -22 113 -25 18 -61
20 -95 6z"/>
<path d="M2713 870 c-20 -8 -23 -16 -23 -71 0 -33 4 -59 9 -57 5 2 37 25 72
52 l63 49 -23 18 c-25 20 -62 23 -98 9z"/>
</g>
</svg>
